<svg width="20" height="21" viewBox="0 0 20 21" fill="none" xmlns="http://www.w3.org/2000/svg">
<path fill-rule="evenodd" clip-rule="evenodd" d="M4.75 0.75C5.16421 0.75 5.5 1.08579 5.5 1.5V3H14.5V1.5C14.5 1.08579 14.8358 0.75 15.25 0.75C15.6642 0.75 16 1.08579 16 1.5V3H16.75C18.4069 3 19.75 4.34315 19.75 6V17.25C19.75 18.9069 18.4069 20.25 16.75 20.25H3.25C1.59315 20.25 0.25 18.9069 0.25 17.25V6C0.25 4.34315 1.59315 3 3.25 3H4V1.5C4 1.08579 4.33579 0.75 4.75 0.75ZM3.25 4.5C2.42157 4.5 1.75 5.17157 1.75 6V7.15135C2.19126 6.89609 2.70357 6.75 3.25 6.75H16.75C17.2964 6.75 17.8087 6.89609 18.25 7.15135V6C18.25 5.17157 17.5784 4.5 16.75 4.5H3.25ZM18.25 9.75C18.25 8.92157 17.5784 8.25 16.75 8.25H3.25C2.42157 8.25 1.75 8.92157 1.75 9.75V17.25C1.75 18.0784 2.42157 18.75 3.25 18.75H16.75C17.5784 18.75 18.25 18.0784 18.25 17.25V9.75Z" fill="#999999"/>
</svg>
