<svg width="20" height="20" viewBox="0 0 20 20" fill="none" xmlns="http://www.w3.org/2000/svg">
<path fill-rule="evenodd" clip-rule="evenodd" d="M10 1.75C5.44365 1.75 1.75 5.44365 1.75 10C1.75 14.5563 5.44365 18.25 10 18.25C14.5563 18.25 18.25 14.5563 18.25 10C18.25 5.44365 14.5563 1.75 10 1.75ZM0.25 10C0.25 4.61522 4.61522 0.25 10 0.25C15.3848 0.25 19.75 4.61522 19.75 10C19.75 15.3848 15.3848 19.75 10 19.75C4.61522 19.75 0.25 15.3848 0.25 10ZM10 3.25C10.4142 3.25 10.75 3.58579 10.75 4V9.25H14.5C14.9142 9.25 15.25 9.58579 15.25 10C15.25 10.4142 14.9142 10.75 14.5 10.75H10C9.58579 10.75 9.25 10.4142 9.25 10V4C9.25 3.58579 9.58579 3.25 10 3.25Z" fill="#999999"/>
</svg>
