<svg width="18" height="19" viewBox="0 0 18 19" fill="none" xmlns="http://www.w3.org/2000/svg">
<path fill-rule="evenodd" clip-rule="evenodd" d="M0 3.5C0 1.84315 1.34315 0.5 3 0.5H5.25C6.90685 0.5 8.25 1.84315 8.25 3.5V5.75C8.25 7.40685 6.90685 8.75 5.25 8.75H3C1.34315 8.75 0 7.40685 0 5.75V3.5ZM3 2C2.17157 2 1.5 2.67157 1.5 3.5V5.75C1.5 6.57843 2.17157 7.25 3 7.25H5.25C6.07843 7.25 6.75 6.57843 6.75 5.75V3.5C6.75 2.67157 6.07843 2 5.25 2H3ZM9.75 3.5C9.75 1.84315 11.0931 0.5 12.75 0.5H15C16.6569 0.5 18 1.84315 18 3.5V5.75C18 7.40685 16.6569 8.75 15 8.75H12.75C11.0931 8.75 9.75 7.40685 9.75 5.75V3.5ZM12.75 2C11.9216 2 11.25 2.67157 11.25 3.5V5.75C11.25 6.57843 11.9216 7.25 12.75 7.25H15C15.8284 7.25 16.5 6.57843 16.5 5.75V3.5C16.5 2.67157 15.8284 2 15 2H12.75ZM0 13.25C0 11.5931 1.34315 10.25 3 10.25H5.25C6.90685 10.25 8.25 11.5931 8.25 13.25V15.5C8.25 17.1569 6.90685 18.5 5.25 18.5H3C1.34315 18.5 0 17.1569 0 15.5V13.25ZM3 11.75C2.17157 11.75 1.5 12.4216 1.5 13.25V15.5C1.5 16.3284 2.17157 17 3 17H5.25C6.07843 17 6.75 16.3284 6.75 15.5V13.25C6.75 12.4216 6.07843 11.75 5.25 11.75H3ZM9.75 13.25C9.75 11.5931 11.0931 10.25 12.75 10.25H15C16.6569 10.25 18 11.5931 18 13.25V15.5C18 17.1569 16.6569 18.5 15 18.5H12.75C11.0931 18.5 9.75 17.1569 9.75 15.5V13.25ZM12.75 11.75C11.9216 11.75 11.25 12.4216 11.25 13.25V15.5C11.25 16.3284 11.9216 17 12.75 17H15C15.8284 17 16.5 16.3284 16.5 15.5V13.25C16.5 12.4216 15.8284 11.75 15 11.75H12.75Z" fill="#999999"/>
</svg>
