<svg width="20" height="21" viewBox="0 0 20 21" fill="none" xmlns="http://www.w3.org/2000/svg">
<path fill-rule="evenodd" clip-rule="evenodd" d="M7.00016 0.75C7.41437 0.75 7.75016 1.08579 7.75016 1.5V3.00565C8.63453 3.019 9.51327 3.05589 10.3858 3.11576C11.2952 3.17816 12.1978 3.2655 13.093 3.37713C13.504 3.42838 13.7956 3.80314 13.7444 4.21417C13.6931 4.6252 13.3184 4.91685 12.9074 4.8656C12.2478 4.78336 11.5841 4.71471 10.9163 4.65993C10.3256 6.96971 9.30618 9.10736 7.94809 10.9834C8.26493 11.3666 8.59804 11.736 8.94635 12.0905C9.23669 12.3859 9.23256 12.8607 8.93714 13.1511C8.64171 13.4414 8.16685 13.4373 7.87652 13.1419C7.57364 12.8337 7.28132 12.515 7.00015 12.1866C5.42902 14.022 3.50956 15.5501 1.34438 16.6686C0.976376 16.8587 0.52393 16.7145 0.333818 16.3465C0.143706 15.9785 0.28792 15.526 0.655928 15.3359C2.73772 14.2605 4.57228 12.7737 6.05223 10.9834C5.18614 9.78695 4.45772 8.484 3.89036 7.09774C3.73347 6.71439 3.91705 6.27643 4.3004 6.11954C4.68375 5.96265 5.1217 6.14622 5.2786 6.52958C5.74091 7.65919 6.31972 8.72905 7.00015 9.72416C8.06504 8.16674 8.88116 6.42604 9.39137 4.55944C8.59934 4.51997 7.80211 4.5 7.00016 4.5C4.99929 4.5 3.02782 4.62433 1.09296 4.8656C0.681931 4.91685 0.307175 4.6252 0.25592 4.21417C0.204666 3.80314 0.496321 3.42838 0.907351 3.37713C2.66129 3.15841 4.44395 3.0329 6.25016 3.00565V1.5C6.25016 1.08579 6.58594 0.75 7.00016 0.75ZM13.7502 7.5C14.0415 7.5 14.3066 7.66878 14.4298 7.93284L19.6798 19.1828C19.855 19.5582 19.6927 20.0045 19.3173 20.1796C18.942 20.3548 18.4957 20.1925 18.3205 19.8172L17.1225 17.25H10.3778L9.17979 19.8172C9.00463 20.1925 8.55835 20.3548 8.18299 20.1796C7.80764 20.0045 7.64535 19.5582 7.82052 19.1828L13.0705 7.93284C13.1937 7.66878 13.4588 7.5 13.7502 7.5ZM11.0778 15.75H16.4225L13.7502 10.0235L11.0778 15.75Z" fill="#999999"/>
</svg>
