<svg width="25" height="24" viewBox="0 0 25 24" fill="none" xmlns="http://www.w3.org/2000/svg">
<path fill-rule="evenodd" clip-rule="evenodd" d="M13.25 2.20837C13.25 1.17284 14.0895 0.333374 15.125 0.333374C17.127 0.333374 18.75 1.95634 18.75 3.95837C18.75 5.45367 18.4127 6.87297 17.8091 8.14191C17.8074 8.14559 17.8041 8.15454 17.8049 8.17151C17.8055 8.18398 17.8083 8.19681 17.8125 8.20837H21.399C23.0132 8.20837 24.5996 9.31468 24.79 11.1032C24.8462 11.6309 24.875 12.1664 24.875 12.7084C24.875 16.2669 23.6346 19.5385 21.5633 22.1104C20.8949 22.9404 19.891 23.3334 18.9123 23.3334H14.227C13.5552 23.3334 12.8878 23.2251 12.2505 23.0126L8.61701 21.8015C8.18365 21.657 7.72984 21.5834 7.27304 21.5834H6.77397C6.7827 22.4628 6.14269 23.3334 5.09245 23.3334H4.03337C2.63177 23.3334 1.22745 22.5093 0.775848 21.0292C0.35242 19.6414 0.125 18.1693 0.125 16.6459C0.125 14.7071 0.493317 12.852 1.16471 11.1484C1.69464 9.80368 3.01895 9.08337 4.33258 9.08337H5.5608C6.18092 9.08337 6.65117 9.37981 6.93494 9.80056C7.25675 9.65449 7.56298 9.41017 7.82125 9.08086C8.80857 7.82197 10.053 6.77401 11.4764 6.01599C12.1813 5.64056 12.705 5.12833 12.946 4.52573C13.1468 4.02372 13.25 3.488 13.25 2.94732V2.20837ZM5.05758 11.0834H4.33258C3.70483 11.0834 3.20731 11.4201 3.02543 11.8817C2.44456 13.3556 2.125 14.9622 2.125 16.6459C2.125 17.9693 2.32244 19.2448 2.68879 20.4455C2.84234 20.9488 3.36131 21.3334 4.03337 21.3334H4.62084C4.56553 21.2096 4.51233 21.0846 4.4613 20.9586C3.92167 19.6255 3.625 18.1691 3.625 16.6459C3.625 14.6299 4.14459 12.7326 5.05758 11.0834ZM6.89462 11.8978C7.92819 11.7055 8.79798 11.0763 9.39498 10.3151C10.2117 9.27374 11.2409 8.40733 12.4165 7.78126C13.3966 7.25933 14.335 6.43841 14.803 5.26851C15.0983 4.53026 15.25 3.74244 15.25 2.94732V2.33811C16.0891 2.40194 16.75 3.10297 16.75 3.95837C16.75 5.15022 16.4817 6.27659 16.003 7.28281C15.8597 7.58422 15.7987 7.90083 15.8051 8.20837H15.125C14.5727 8.20837 14.125 8.65609 14.125 9.20837C14.125 9.76066 14.5727 10.2084 15.125 10.2084H21.399C22.1803 10.2084 22.7381 10.7214 22.8013 11.3149C22.85 11.7724 22.875 12.2373 22.875 12.7084C22.875 15.7943 21.801 18.6266 20.0057 20.8559C19.7697 21.1489 19.3754 21.3334 18.9123 21.3334H14.227C13.7702 21.3334 13.3163 21.2597 12.883 21.1153L9.24946 19.9041C8.61217 19.6917 7.9448 19.5834 7.27304 19.5834H6.08758C5.78746 18.6593 5.625 17.6724 5.625 16.6459C5.625 14.9145 6.08726 13.2939 6.89462 11.8978Z" fill="white"/>
</svg>
