<svg width="26" height="28" viewBox="0 0 26 28" fill="none" xmlns="http://www.w3.org/2000/svg">
<path fill-rule="evenodd" clip-rule="evenodd" d="M13 2.25C8.85788 2.25 5.50001 5.60786 5.50001 9.75L5.49973 10.8125C5.49973 10.8126 5.49973 10.8124 5.49973 10.8125C5.49968 13.8181 4.53432 16.6002 2.89778 18.8629C4.88001 19.4996 6.94413 19.9539 9.07057 20.2061C10.3586 20.3589 11.6698 20.4375 12.9997 20.4375C14.3299 20.4375 15.6412 20.3589 16.9294 20.2061C19.0557 19.9538 21.1196 19.4995 23.1017 18.8629C21.4651 16.6001 20.4997 13.8182 20.4997 10.8125V9.81165L20.5 9.75C20.5 5.60786 17.1422 2.25 13 2.25ZM3.50002 9.74974C3.50016 4.50315 7.7534 0.25 13 0.25C18.2467 0.25 22.5 4.50329 22.5 9.75C22.5 9.77455 22.4999 9.79908 22.4997 9.8236V10.8125C22.4997 13.8363 23.6406 16.5913 25.5171 18.6742C25.7391 18.9206 25.8245 19.261 25.745 19.5831C25.6655 19.9051 25.4316 20.1667 25.1204 20.2816C22.9193 21.0942 20.6142 21.6918 18.2309 22.0491C18.2435 22.1978 18.25 22.3482 18.25 22.5C18.25 25.3995 15.8995 27.75 13 27.75C10.1005 27.75 7.75001 25.3995 7.75001 22.5C7.75001 22.3483 7.75648 22.1979 7.76916 22.0492C5.38561 21.6919 3.08034 21.0942 0.87904 20.2816C0.56789 20.1667 0.333937 19.9051 0.254478 19.5831C0.175018 19.261 0.260392 18.9206 0.482392 18.6742C2.35883 16.5913 3.49973 13.8363 3.49973 10.8125L3.50002 9.74974C3.50002 9.74965 3.50002 9.74982 3.50002 9.74974ZM9.75671 22.2892C9.75227 22.3588 9.75002 22.4291 9.75002 22.5C9.75002 24.2949 11.2051 25.75 13 25.75C14.7949 25.75 16.25 24.2949 16.25 22.5C16.25 22.4291 16.2478 22.3588 16.2433 22.2891C15.1751 22.3873 14.0931 22.4375 12.9997 22.4375C11.9065 22.4375 10.8248 22.3874 9.75671 22.2892Z" fill="white"/>
</svg>
