<svg width="28" height="28" viewBox="0 0 28 28" fill="none" xmlns="http://www.w3.org/2000/svg">
<path fill-rule="evenodd" clip-rule="evenodd" d="M11.875 2.25C6.55926 2.25 2.25 6.55926 2.25 11.875C2.25 17.1907 6.55926 21.5 11.875 21.5C14.5331 21.5 16.938 20.4238 18.6809 18.6809C20.4238 16.938 21.5 14.5331 21.5 11.875C21.5 6.55926 17.1907 2.25 11.875 2.25ZM0.25 11.875C0.25 5.45469 5.45469 0.25 11.875 0.25C18.2953 0.25 23.5 5.45469 23.5 11.875C23.5 14.7247 22.4736 17.3362 20.7719 19.3577L27.4571 26.0429C27.8476 26.4334 27.8476 27.0666 27.4571 27.4571C27.0666 27.8476 26.4334 27.8476 26.0429 27.4571L19.3577 20.7719C17.3362 22.4736 14.7247 23.5 11.875 23.5C5.45469 23.5 0.25 18.2953 0.25 11.875Z" fill="white"/>
</svg>
