<svg width="24" height="20" viewBox="0 0 24 20" fill="none" xmlns="http://www.w3.org/2000/svg">
<path fill-rule="evenodd" clip-rule="evenodd" d="M13.0429 0.542893C13.4334 0.152369 14.0666 0.152369 14.4571 0.542893L23.2071 9.29289C23.3946 9.48043 23.5 9.73478 23.5 10C23.5 10.2652 23.3946 10.5196 23.2071 10.7071L14.4571 19.4571C14.0666 19.8476 13.4334 19.8476 13.0429 19.4571C12.6524 19.0666 12.6524 18.4334 13.0429 18.0429L20.0858 11H1.5C0.947715 11 0.5 10.5523 0.5 10C0.5 9.44771 0.947715 9 1.5 9H20.0858L13.0429 1.95711C12.6524 1.56658 12.6524 0.933417 13.0429 0.542893Z" fill="white"/>
</svg>
