<svg width="0" height="0" class="hidden">
	<symbol fill="currentColor" xmlns="http://www.w3.org/2000/svg" viewBox="0 0 20 21" id="calendar">
		<path fill-rule="evenodd" clip-rule="evenodd" d="M4.75 0.75C5.16421 0.75 5.5 1.08579 5.5 1.5V3H14.5V1.5C14.5 1.08579 14.8358 0.75 15.25 0.75C15.6642 0.75 16 1.08579 16 1.5V3H16.75C18.4069 3 19.75 4.34315 19.75 6V17.25C19.75 18.9069 18.4069 20.25 16.75 20.25H3.25C1.59315 20.25 0.25 18.9069 0.25 17.25V6C0.25 4.34315 1.59315 3 3.25 3H4V1.5C4 1.08579 4.33579 0.75 4.75 0.75ZM3.25 4.5C2.42157 4.5 1.75 5.17157 1.75 6V7.15135C2.19126 6.89609 2.70357 6.75 3.25 6.75H16.75C17.2964 6.75 17.8087 6.89609 18.25 7.15135V6C18.25 5.17157 17.5784 4.5 16.75 4.5H3.25ZM18.25 9.75C18.25 8.92157 17.5784 8.25 16.75 8.25H3.25C2.42157 8.25 1.75 8.92157 1.75 9.75V17.25C1.75 18.0784 2.42157 18.75 3.25 18.75H16.75C17.5784 18.75 18.25 18.0784 18.25 17.25V9.75Z" fill="currentColor"></path>
	</symbol>
	<symbol fill="none" xmlns="http://www.w3.org/2000/svg" viewBox="0 0 20 20" id="clock">
		<path fill-rule="evenodd" clip-rule="evenodd" d="M10 0.25C4.61522 0.25 0.25 4.61522 0.25 10C0.25 15.3848 4.61522 19.75 10 19.75C15.3848 19.75 19.75 15.3848 19.75 10C19.75 4.61522 15.3848 0.25 10 0.25ZM10.75 4C10.75 3.58579 10.4142 3.25 10 3.25C9.58579 3.25 9.25 3.58579 9.25 4V10C9.25 10.4142 9.58579 10.75 10 10.75H14.5C14.9142 10.75 15.25 10.4142 15.25 10C15.25 9.58579 14.9142 9.25 14.5 9.25H10.75V4Z" fill="#999999"></path>
	</symbol>
	<symbol fill="none" xmlns="http://www.w3.org/2000/svg" viewBox="0 0 20 20" id="clock-border">
		<path fill-rule="evenodd" clip-rule="evenodd" d="M10 1.75C5.44365 1.75 1.75 5.44365 1.75 10C1.75 14.5563 5.44365 18.25 10 18.25C14.5563 18.25 18.25 14.5563 18.25 10C18.25 5.44365 14.5563 1.75 10 1.75ZM0.25 10C0.25 4.61522 4.61522 0.25 10 0.25C15.3848 0.25 19.75 4.61522 19.75 10C19.75 15.3848 15.3848 19.75 10 19.75C4.61522 19.75 0.25 15.3848 0.25 10ZM10 3.25C10.4142 3.25 10.75 3.58579 10.75 4V9.25H14.5C14.9142 9.25 15.25 9.58579 15.25 10C15.25 10.4142 14.9142 10.75 14.5 10.75H10C9.58579 10.75 9.25 10.4142 9.25 10V4C9.25 3.58579 9.58579 3.25 10 3.25Z" fill="#999999"></path>
	</symbol>
	<symbol fill="none" xmlns="http://www.w3.org/2000/svg" viewBox="0 0 23 18" id="eye">
		<path d="M11.5996 12C13.2565 12 14.5996 10.6569 14.5996 9C14.5996 7.34315 13.2565 6 11.5996 6C9.94275 6 8.59961 7.34315 8.59961 9C8.59961 10.6569 9.94275 12 11.5996 12Z" fill="#999999"></path>
		<path fill-rule="evenodd" clip-rule="evenodd" d="M0.92302 8.4467C2.41027 3.97571 6.62752 0.75 11.6001 0.75C16.5704 0.75 20.7861 3.97271 22.2752 8.44045C22.3955 8.80152 22.3956 9.19217 22.2755 9.55331C20.7882 14.0243 16.571 17.25 11.5984 17.25C6.62808 17.25 2.41245 14.0273 0.923348 9.55955C0.803006 9.19849 0.802892 8.80783 0.92302 8.4467ZM16.8496 9C16.8496 11.8995 14.4991 14.25 11.5996 14.25C8.70011 14.25 6.34961 11.8995 6.34961 9C6.34961 6.1005 8.70011 3.75 11.5996 3.75C14.4991 3.75 16.8496 6.1005 16.8496 9Z" fill="#999999"></path>
	</symbol>
	<symbol fill="none" xmlns="http://www.w3.org/2000/svg" viewBox="0 0 24 24" id="facebook">
		<path d="M24 12C24 5.37258 18.6274 0 12 0C5.37258 0 0 5.37258 0 12C0 17.9895 4.3882 22.954 10.125 23.8542V15.4687H7.07812V12H10.125V9.35625C10.125 6.34875 11.9166 4.6875 14.6576 4.6875C15.9701 4.6875 17.3438 4.92187 17.3438 4.92187V7.875H15.8306C14.34 7.875 13.875 8.80008 13.875 9.75V12H17.2031L16.6711 15.4687H13.875V23.8542C19.6118 22.954 24 17.9895 24 12Z" fill="white"></path>
	</symbol>
	<symbol fill="none" xmlns="http://www.w3.org/2000/svg" viewBox="0 0 18 19" id="gernes">
		<path fill-rule="evenodd" clip-rule="evenodd" d="M0 3.5C0 1.84315 1.34315 0.5 3 0.5H5.25C6.90685 0.5 8.25 1.84315 8.25 3.5V5.75C8.25 7.40685 6.90685 8.75 5.25 8.75H3C1.34315 8.75 0 7.40685 0 5.75V3.5ZM3 2C2.17157 2 1.5 2.67157 1.5 3.5V5.75C1.5 6.57843 2.17157 7.25 3 7.25H5.25C6.07843 7.25 6.75 6.57843 6.75 5.75V3.5C6.75 2.67157 6.07843 2 5.25 2H3ZM9.75 3.5C9.75 1.84315 11.0931 0.5 12.75 0.5H15C16.6569 0.5 18 1.84315 18 3.5V5.75C18 7.40685 16.6569 8.75 15 8.75H12.75C11.0931 8.75 9.75 7.40685 9.75 5.75V3.5ZM12.75 2C11.9216 2 11.25 2.67157 11.25 3.5V5.75C11.25 6.57843 11.9216 7.25 12.75 7.25H15C15.8284 7.25 16.5 6.57843 16.5 5.75V3.5C16.5 2.67157 15.8284 2 15 2H12.75ZM0 13.25C0 11.5931 1.34315 10.25 3 10.25H5.25C6.90685 10.25 8.25 11.5931 8.25 13.25V15.5C8.25 17.1569 6.90685 18.5 5.25 18.5H3C1.34315 18.5 0 17.1569 0 15.5V13.25ZM3 11.75C2.17157 11.75 1.5 12.4216 1.5 13.25V15.5C1.5 16.3284 2.17157 17 3 17H5.25C6.07843 17 6.75 16.3284 6.75 15.5V13.25C6.75 12.4216 6.07843 11.75 5.25 11.75H3ZM9.75 13.25C9.75 11.5931 11.0931 10.25 12.75 10.25H15C16.6569 10.25 18 11.5931 18 13.25V15.5C18 17.1569 16.6569 18.5 15 18.5H12.75C11.0931 18.5 9.75 17.1569 9.75 15.5V13.25ZM12.75 11.75C11.9216 11.75 11.25 12.4216 11.25 13.25V15.5C11.25 16.3284 11.9216 17 12.75 17H15C15.8284 17 16.5 16.3284 16.5 15.5V13.25C16.5 12.4216 15.8284 11.75 15 11.75H12.75Z" fill="#999999"></path>
	</symbol>
	<symbol fill="none" xmlns="http://www.w3.org/2000/svg" viewBox="0 0 20 21" id="langs">
		<path fill-rule="evenodd" clip-rule="evenodd" d="M7.00016 0.75C7.41437 0.75 7.75016 1.08579 7.75016 1.5V3.00565C8.63453 3.019 9.51327 3.05589 10.3858 3.11576C11.2952 3.17816 12.1978 3.2655 13.093 3.37713C13.504 3.42838 13.7956 3.80314 13.7444 4.21417C13.6931 4.6252 13.3184 4.91685 12.9074 4.8656C12.2478 4.78336 11.5841 4.71471 10.9163 4.65993C10.3256 6.96971 9.30618 9.10736 7.94809 10.9834C8.26493 11.3666 8.59804 11.736 8.94635 12.0905C9.23669 12.3859 9.23256 12.8607 8.93714 13.1511C8.64171 13.4414 8.16685 13.4373 7.87652 13.1419C7.57364 12.8337 7.28132 12.515 7.00015 12.1866C5.42902 14.022 3.50956 15.5501 1.34438 16.6686C0.976376 16.8587 0.52393 16.7145 0.333818 16.3465C0.143706 15.9785 0.28792 15.526 0.655928 15.3359C2.73772 14.2605 4.57228 12.7737 6.05223 10.9834C5.18614 9.78695 4.45772 8.484 3.89036 7.09774C3.73347 6.71439 3.91705 6.27643 4.3004 6.11954C4.68375 5.96265 5.1217 6.14622 5.2786 6.52958C5.74091 7.65919 6.31972 8.72905 7.00015 9.72416C8.06504 8.16674 8.88116 6.42604 9.39137 4.55944C8.59934 4.51997 7.80211 4.5 7.00016 4.5C4.99929 4.5 3.02782 4.62433 1.09296 4.8656C0.681931 4.91685 0.307175 4.6252 0.25592 4.21417C0.204666 3.80314 0.496321 3.42838 0.907351 3.37713C2.66129 3.15841 4.44395 3.0329 6.25016 3.00565V1.5C6.25016 1.08579 6.58594 0.75 7.00016 0.75ZM13.7502 7.5C14.0415 7.5 14.3066 7.66878 14.4298 7.93284L19.6798 19.1828C19.855 19.5582 19.6927 20.0045 19.3173 20.1796C18.942 20.3548 18.4957 20.1925 18.3205 19.8172L17.1225 17.25H10.3778L9.17979 19.8172C9.00463 20.1925 8.55835 20.3548 8.18299 20.1796C7.80764 20.0045 7.64535 19.5582 7.82052 19.1828L13.0705 7.93284C13.1937 7.66878 13.4588 7.5 13.7502 7.5ZM11.0778 15.75H16.4225L13.7502 10.0235L11.0778 15.75Z" fill="#999999"></path>
	</symbol>
	<symbol fill="none" xmlns="http://www.w3.org/2000/svg" viewBox="0 0 25 24" id="like">
		<path fill-rule="evenodd" clip-rule="evenodd" d="M13.25 2.20837C13.25 1.17284 14.0895 0.333374 15.125 0.333374C17.127 0.333374 18.75 1.95634 18.75 3.95837C18.75 5.45367 18.4127 6.87297 17.8091 8.14191C17.8074 8.14559 17.8041 8.15454 17.8049 8.17151C17.8055 8.18398 17.8083 8.19681 17.8125 8.20837H21.399C23.0132 8.20837 24.5996 9.31468 24.79 11.1032C24.8462 11.6309 24.875 12.1664 24.875 12.7084C24.875 16.2669 23.6346 19.5385 21.5633 22.1104C20.8949 22.9404 19.891 23.3334 18.9123 23.3334H14.227C13.5552 23.3334 12.8878 23.2251 12.2505 23.0126L8.61701 21.8015C8.18365 21.657 7.72984 21.5834 7.27304 21.5834H6.77397C6.7827 22.4628 6.14269 23.3334 5.09245 23.3334H4.03337C2.63177 23.3334 1.22745 22.5093 0.775848 21.0292C0.35242 19.6414 0.125 18.1693 0.125 16.6459C0.125 14.7071 0.493317 12.852 1.16471 11.1484C1.69464 9.80368 3.01895 9.08337 4.33258 9.08337H5.5608C6.18092 9.08337 6.65117 9.37981 6.93494 9.80056C7.25675 9.65449 7.56298 9.41017 7.82125 9.08086C8.80857 7.82197 10.053 6.77401 11.4764 6.01599C12.1813 5.64056 12.705 5.12833 12.946 4.52573C13.1468 4.02372 13.25 3.488 13.25 2.94732V2.20837ZM5.05758 11.0834H4.33258C3.70483 11.0834 3.20731 11.4201 3.02543 11.8817C2.44456 13.3556 2.125 14.9622 2.125 16.6459C2.125 17.9693 2.32244 19.2448 2.68879 20.4455C2.84234 20.9488 3.36131 21.3334 4.03337 21.3334H4.62084C4.56553 21.2096 4.51233 21.0846 4.4613 20.9586C3.92167 19.6255 3.625 18.1691 3.625 16.6459C3.625 14.6299 4.14459 12.7326 5.05758 11.0834ZM6.89462 11.8978C7.92819 11.7055 8.79798 11.0763 9.39498 10.3151C10.2117 9.27374 11.2409 8.40733 12.4165 7.78126C13.3966 7.25933 14.335 6.43841 14.803 5.26851C15.0983 4.53026 15.25 3.74244 15.25 2.94732V2.33811C16.0891 2.40194 16.75 3.10297 16.75 3.95837C16.75 5.15022 16.4817 6.27659 16.003 7.28281C15.8597 7.58422 15.7987 7.90083 15.8051 8.20837H15.125C14.5727 8.20837 14.125 8.65609 14.125 9.20837C14.125 9.76066 14.5727 10.2084 15.125 10.2084H21.399C22.1803 10.2084 22.7381 10.7214 22.8013 11.3149C22.85 11.7724 22.875 12.2373 22.875 12.7084C22.875 15.7943 21.801 18.6266 20.0057 20.8559C19.7697 21.1489 19.3754 21.3334 18.9123 21.3334H14.227C13.7702 21.3334 13.3163 21.2597 12.883 21.1153L9.24946 19.9041C8.61217 19.6917 7.9448 19.5834 7.27304 19.5834H6.08758C5.78746 18.6593 5.625 17.6724 5.625 16.6459C5.625 14.9145 6.08726 13.2939 6.89462 11.8978Z" fill="white"></path>
	</symbol>
	<symbol fill="none" xmlns="http://www.w3.org/2000/svg" viewBox="0 0 24 24" id="linkedin">
		<path d="M22.2234 0H1.77187C0.792187 0 0 0.773438 0 1.72969V22.2656C0 23.2219 0.792187 24 1.77187 24H22.2234C23.2031 24 24 23.2219 24 22.2703V1.72969C24 0.773438 23.2031 0 22.2234 0ZM7.12031 20.4516H3.55781V8.99531H7.12031V20.4516ZM5.33906 7.43438C4.19531 7.43438 3.27188 6.51094 3.27188 5.37187C3.27188 4.23281 4.19531 3.30937 5.33906 3.30937C6.47813 3.30937 7.40156 4.23281 7.40156 5.37187C7.40156 6.50625 6.47813 7.43438 5.33906 7.43438ZM20.4516 20.4516H16.8937V14.8828C16.8937 13.5562 16.8703 11.8453 15.0422 11.8453C13.1906 11.8453 12.9094 13.2937 12.9094 14.7891V20.4516H9.35625V8.99531H12.7687V10.5609H12.8156C13.2891 9.66094 14.4516 8.70938 16.1813 8.70938C19.7859 8.70938 20.4516 11.0813 20.4516 14.1656V20.4516Z" fill="white"></path>
	</symbol>
	<symbol fill="none" xmlns="http://www.w3.org/2000/svg" viewBox="0 0 26 28" id="notifications">
		<path fill-rule="evenodd" clip-rule="evenodd" d="M13 2.25C8.85788 2.25 5.50001 5.60786 5.50001 9.75L5.49973 10.8125C5.49973 10.8126 5.49973 10.8124 5.49973 10.8125C5.49968 13.8181 4.53432 16.6002 2.89778 18.8629C4.88001 19.4996 6.94413 19.9539 9.07057 20.2061C10.3586 20.3589 11.6698 20.4375 12.9997 20.4375C14.3299 20.4375 15.6412 20.3589 16.9294 20.2061C19.0557 19.9538 21.1196 19.4995 23.1017 18.8629C21.4651 16.6001 20.4997 13.8182 20.4997 10.8125V9.81165L20.5 9.75C20.5 5.60786 17.1422 2.25 13 2.25ZM3.50002 9.74974C3.50016 4.50315 7.7534 0.25 13 0.25C18.2467 0.25 22.5 4.50329 22.5 9.75C22.5 9.77455 22.4999 9.79908 22.4997 9.8236V10.8125C22.4997 13.8363 23.6406 16.5913 25.5171 18.6742C25.7391 18.9206 25.8245 19.261 25.745 19.5831C25.6655 19.9051 25.4316 20.1667 25.1204 20.2816C22.9193 21.0942 20.6142 21.6918 18.2309 22.0491C18.2435 22.1978 18.25 22.3482 18.25 22.5C18.25 25.3995 15.8995 27.75 13 27.75C10.1005 27.75 7.75001 25.3995 7.75001 22.5C7.75001 22.3483 7.75648 22.1979 7.76916 22.0492C5.38561 21.6919 3.08034 21.0942 0.87904 20.2816C0.56789 20.1667 0.333937 19.9051 0.254478 19.5831C0.175018 19.261 0.260392 18.9206 0.482392 18.6742C2.35883 16.5913 3.49973 13.8363 3.49973 10.8125L3.50002 9.74974C3.50002 9.74965 3.50002 9.74982 3.50002 9.74974ZM9.75671 22.2892C9.75227 22.3588 9.75002 22.4291 9.75002 22.5C9.75002 24.2949 11.2051 25.75 13 25.75C14.7949 25.75 16.25 24.2949 16.25 22.5C16.25 22.4291 16.2478 22.3588 16.2433 22.2891C15.1751 22.3873 14.0931 22.4375 12.9997 22.4375C11.9065 22.4375 10.8248 22.3874 9.75671 22.2892Z" fill="white"></path>
	</symbol>
	<symbol fill="none" xmlns="http://www.w3.org/2000/svg" viewBox="0 0 19 20" id="play">
		<path fill-rule="evenodd" clip-rule="evenodd" d="M0.75 2.59479C0.75 0.930971 2.53383 -0.123757 3.9917 0.678068L17.4557 8.08328C18.9668 8.91436 18.9668 11.0856 17.4557 11.9167L3.9917 19.3219C2.53383 20.1238 0.75 19.069 0.75 17.4052V2.59479Z" fill="white"></path>
	</symbol>
	<symbol fill="none" xmlns="http://www.w3.org/2000/svg" viewBox="0 0 17 16" id="plus">
		<path fill-rule="evenodd" clip-rule="evenodd" d="M8.5 0C9.05228 0 9.5 0.447715 9.5 1V7L15.5 7C16.0523 7 16.5 7.44772 16.5 8C16.5 8.55228 16.0523 9 15.5 9L9.5 9V15C9.5 15.5523 9.05228 16 8.5 16C7.94771 16 7.5 15.5523 7.5 15V9L1.5 9C0.947715 9 0.5 8.55228 0.5 8C0.5 7.44771 0.947715 7 1.5 7L7.5 7V1C7.5 0.447715 7.94771 0 8.5 0Z" fill="white"></path>
	</symbol>
	<symbol fill="none" xmlns="http://www.w3.org/2000/svg" viewBox="0 0 28 28" id="search">
		<path fill-rule="evenodd" clip-rule="evenodd" d="M11.875 2.25C6.55926 2.25 2.25 6.55926 2.25 11.875C2.25 17.1907 6.55926 21.5 11.875 21.5C14.5331 21.5 16.938 20.4238 18.6809 18.6809C20.4238 16.938 21.5 14.5331 21.5 11.875C21.5 6.55926 17.1907 2.25 11.875 2.25ZM0.25 11.875C0.25 5.45469 5.45469 0.25 11.875 0.25C18.2953 0.25 23.5 5.45469 23.5 11.875C23.5 14.7247 22.4736 17.3362 20.7719 19.3577L27.4571 26.0429C27.8476 26.4334 27.8476 27.0666 27.4571 27.4571C27.0666 27.8476 26.4334 27.8476 26.0429 27.4571L19.3577 20.7719C17.3362 22.4736 14.7247 23.5 11.875 23.5C5.45469 23.5 0.25 18.2953 0.25 11.875Z" fill="white"></path>
	</symbol>
	<symbol fill="none" xmlns="http://www.w3.org/2000/svg" viewBox="0 0 14 9" id="select">
		<path fill-rule="evenodd" clip-rule="evenodd" d="M0.292893 0.792893C0.683417 0.402369 1.31658 0.402369 1.70711 0.792893L7 6.08579L12.2929 0.792893C12.6834 0.402369 13.3166 0.402369 13.7071 0.792893C14.0976 1.18342 14.0976 1.81658 13.7071 2.20711L7.70711 8.20711C7.31658 8.59763 6.68342 8.59763 6.29289 8.20711L0.292893 2.20711C-0.0976311 1.81658 -0.0976311 1.18342 0.292893 0.792893Z" fill="#999999"></path>
	</symbol>
	<symbol fill="none" xmlns="http://www.w3.org/2000/svg" viewBox="0 0 24 20" id="slider-arrow">
		<path fill-rule="evenodd" clip-rule="evenodd" d="M13.0429 0.542893C13.4334 0.152369 14.0666 0.152369 14.4571 0.542893L23.2071 9.29289C23.3946 9.48043 23.5 9.73478 23.5 10C23.5 10.2652 23.3946 10.5196 23.2071 10.7071L14.4571 19.4571C14.0666 19.8476 13.4334 19.8476 13.0429 19.4571C12.6524 19.0666 12.6524 18.4334 13.0429 18.0429L20.0858 11H1.5C0.947715 11 0.5 10.5523 0.5 10C0.5 9.44771 0.947715 9 1.5 9H20.0858L13.0429 1.95711C12.6524 1.56658 12.6524 0.933417 13.0429 0.542893Z" fill="white"></path>
	</symbol>
	<symbol fill="none" xmlns="http://www.w3.org/2000/svg" viewBox="0 0 20 20" id="star">
		<path fill-rule="evenodd" clip-rule="evenodd" d="M8.78735 1.71068C9.23569 0.632735 10.7627 0.632735 11.2111 1.71068L13.2931 6.7164L18.6972 7.14964C19.8609 7.24293 20.3328 8.69523 19.4461 9.45473L15.3288 12.9817L16.5867 18.2551C16.8576 19.3908 15.6222 20.2883 14.6259 19.6798L9.99921 16.8538L5.37256 19.6798C4.37624 20.2883 3.14084 19.3908 3.41173 18.2551L4.66964 12.9817L0.552299 9.45473C-0.334342 8.69523 0.137532 7.24294 1.30127 7.14964L6.70536 6.7164L8.78735 1.71068ZM9.99921 2.70296L8.04636 7.39818C7.85735 7.85262 7.42998 8.16312 6.93938 8.20245L1.8705 8.60882L5.73246 11.917C6.10624 12.2372 6.26948 12.7396 6.15528 13.2183L4.97539 18.1647L9.31506 15.514C9.73508 15.2575 10.2633 15.2575 10.6834 15.514L15.023 18.1647L13.8431 13.2183C13.7289 12.7396 13.8922 12.2372 14.266 11.917L18.1279 8.60882L13.059 8.20245C12.5684 8.16312 12.1411 7.85262 11.9521 7.39818L9.99921 2.70296Z" fill="#999999"></path>
	</symbol>
	<symbol fill="none" xmlns="http://www.w3.org/2000/svg" viewBox="0 0 24 24" id="video-play">
		<path fill-rule="evenodd" clip-rule="evenodd" d="M12 1.5C6.20101 1.5 1.5 6.20101 1.5 12C1.5 17.799 6.20101 22.5 12 22.5C17.799 22.5 22.5 17.799 22.5 12C22.5 6.20101 17.799 1.5 12 1.5ZM0 12C0 5.37258 5.37258 0 12 0C18.6274 0 24 5.37258 24 12C24 18.6274 18.6274 24 12 24C5.37258 24 0 18.6274 0 12ZM9.9375 8.58714V15.4129L16.0807 12L9.9375 8.58714ZM8.4375 8.10915C8.4375 7.17987 9.43579 6.59247 10.2481 7.04377L17.2517 10.9346C18.0875 11.399 18.0875 12.601 17.2517 13.0654L10.2481 16.9562C9.43579 17.4075 8.4375 16.8201 8.4375 15.8909V8.10915Z" fill="#E4E4E7"></path>
	</symbol>
	<symbol fill="none" xmlns="http://www.w3.org/2000/svg" viewBox="0 0 25 24" id="volume">
		<path fill-rule="evenodd" clip-rule="evenodd" d="M12.375 3.03918L7.08211 8.33207C6.89457 8.51961 6.64022 8.62497 6.375 8.62497H3.76056C3.08399 8.62497 2.59335 9.00523 2.46519 9.47049C2.24365 10.2747 2.125 11.1227 2.125 12C2.125 12.8772 2.24365 13.7252 2.46519 14.5294C2.59335 14.9947 3.08399 15.375 3.76056 15.375H6.375C6.64022 15.375 6.89457 15.4803 7.08211 15.6679L12.375 20.9608V3.03918ZM11.1742 1.41158C12.3554 0.23039 14.375 1.06696 14.375 2.7374V21.2625C14.375 22.933 12.3554 23.7695 11.1742 22.5884L5.96079 17.375H3.76056C2.38534 17.375 0.953757 16.5735 0.53701 15.0606C0.268253 14.085 0.125 13.0584 0.125 12C0.125 10.9415 0.268253 9.91497 0.53701 8.93933C0.953757 7.42647 2.38534 6.62497 3.76056 6.62497H5.96079L11.1742 1.41158L11.8813 2.11868L11.8883 2.12568M11.1742 1.41158L11.8813 2.11868ZM20.0926 3.86818C20.4831 3.47765 21.1163 3.47765 21.5068 3.86818C25.9978 8.35921 25.9978 15.6406 21.5068 20.1316C21.1163 20.5222 20.4831 20.5222 20.0926 20.1316C19.7021 19.7411 19.7021 19.1079 20.0926 18.7174C23.8026 15.0074 23.8026 8.99237 20.0926 5.28239C19.7021 4.89187 19.7021 4.2587 20.0926 3.86818ZM16.9993 6.96187C17.3898 6.57134 18.023 6.57134 18.4135 6.96187C21.196 9.74435 21.196 14.2557 18.4135 17.0381C18.023 17.4287 17.3898 17.4287 16.9993 17.0381C16.6088 16.6476 16.6088 16.0144 16.9993 15.6239C19.0008 13.6225 19.0008 10.3775 16.9993 8.37608C16.6088 7.98555 16.6088 7.35239 16.9993 6.96187Z" fill="white"></path>
	</symbol>
	<symbol fill="none" xmlns="http://www.w3.org/2000/svg" viewBox="0 0 24 20" id="x">
		<path d="M7.55016 19.75C16.6045 19.75 21.5583 12.2467 21.5583 5.74186C21.5583 5.53092 21.5536 5.3153 21.5442 5.10436C22.5079 4.40746 23.3395 3.54425 24 2.5553C23.1025 2.9546 22.1496 3.21538 21.1739 3.32874C22.2013 2.71291 22.9705 1.74547 23.3391 0.605767C22.3726 1.17856 21.3156 1.58261 20.2134 1.80061C19.4708 1.01156 18.489 0.489116 17.4197 0.314051C16.3504 0.138986 15.2532 0.32105 14.2977 0.832096C13.3423 1.34314 12.5818 2.15471 12.1338 3.14131C11.6859 4.12792 11.5754 5.23462 11.8195 6.2903C9.86249 6.19209 7.94794 5.6837 6.19998 4.7981C4.45203 3.91249 2.90969 2.66944 1.67297 1.14952C1.0444 2.23324 0.852057 3.51565 1.13503 4.73609C1.418 5.95654 2.15506 7.02345 3.19641 7.71999C2.41463 7.69517 1.64998 7.48468 0.965625 7.10592V7.16686C0.964925 8.30415 1.3581 9.40659 2.07831 10.2868C2.79852 11.167 3.80132 11.7706 4.91625 11.995C4.19206 12.1931 3.43198 12.222 2.69484 12.0794C3.00945 13.0574 3.62157 13.9129 4.44577 14.5263C5.26997 15.1398 6.26512 15.4806 7.29234 15.5012C5.54842 16.8711 3.39417 17.6141 1.17656 17.6106C0.783287 17.61 0.390399 17.5859 0 17.5384C2.25286 18.9837 4.87353 19.7514 7.55016 19.75Z" fill="white"></path>
	</symbol>
</svg>