<svg width="20" height="20" viewBox="0 0 20 20" fill="none" xmlns="http://www.w3.org/2000/svg">
<path fill-rule="evenodd" clip-rule="evenodd" d="M8.78735 1.71068C9.23569 0.632735 10.7627 0.632735 11.2111 1.71068L13.2931 6.7164L18.6972 7.14964C19.8609 7.24293 20.3328 8.69523 19.4461 9.45473L15.3288 12.9817L16.5867 18.2551C16.8576 19.3908 15.6222 20.2883 14.6259 19.6798L9.99921 16.8538L5.37256 19.6798C4.37624 20.2883 3.14084 19.3908 3.41173 18.2551L4.66964 12.9817L0.552299 9.45473C-0.334342 8.69523 0.137532 7.24294 1.30127 7.14964L6.70536 6.7164L8.78735 1.71068ZM9.99921 2.70296L8.04636 7.39818C7.85735 7.85262 7.42998 8.16312 6.93938 8.20245L1.8705 8.60882L5.73246 11.917C6.10624 12.2372 6.26948 12.7396 6.15528 13.2183L4.97539 18.1647L9.31506 15.514C9.73508 15.2575 10.2633 15.2575 10.6834 15.514L15.023 18.1647L13.8431 13.2183C13.7289 12.7396 13.8922 12.2372 14.266 11.917L18.1279 8.60882L13.059 8.20245C12.5684 8.16312 12.1411 7.85262 11.9521 7.39818L9.99921 2.70296Z" fill="#999999"/>
</svg>
