<svg width="24" height="24" viewBox="0 0 24 24" fill="none" xmlns="http://www.w3.org/2000/svg">
<path fill-rule="evenodd" clip-rule="evenodd" d="M12 1.5C6.20101 1.5 1.5 6.20101 1.5 12C1.5 17.799 6.20101 22.5 12 22.5C17.799 22.5 22.5 17.799 22.5 12C22.5 6.20101 17.799 1.5 12 1.5ZM0 12C0 5.37258 5.37258 0 12 0C18.6274 0 24 5.37258 24 12C24 18.6274 18.6274 24 12 24C5.37258 24 0 18.6274 0 12ZM9.9375 8.58714V15.4129L16.0807 12L9.9375 8.58714ZM8.4375 8.10915C8.4375 7.17987 9.43579 6.59247 10.2481 7.04377L17.2517 10.9346C18.0875 11.399 18.0875 12.601 17.2517 13.0654L10.2481 16.9562C9.43579 17.4075 8.4375 16.8201 8.4375 15.8909V8.10915Z" fill="#E4E4E7"/>
</svg>
