<svg width="25" height="24" viewBox="0 0 25 24" fill="none" xmlns="http://www.w3.org/2000/svg">
<path fill-rule="evenodd" clip-rule="evenodd" d="M12.375 3.03918L7.08211 8.33207C6.89457 8.51961 6.64022 8.62497 6.375 8.62497H3.76056C3.08399 8.62497 2.59335 9.00523 2.46519 9.47049C2.24365 10.2747 2.125 11.1227 2.125 12C2.125 12.8772 2.24365 13.7252 2.46519 14.5294C2.59335 14.9947 3.08399 15.375 3.76056 15.375H6.375C6.64022 15.375 6.89457 15.4803 7.08211 15.6679L12.375 20.9608V3.03918ZM11.1742 1.41158C12.3554 0.23039 14.375 1.06696 14.375 2.7374V21.2625C14.375 22.933 12.3554 23.7695 11.1742 22.5884L5.96079 17.375H3.76056C2.38534 17.375 0.953757 16.5735 0.53701 15.0606C0.268253 14.085 0.125 13.0584 0.125 12C0.125 10.9415 0.268253 9.91497 0.53701 8.93933C0.953757 7.42647 2.38534 6.62497 3.76056 6.62497H5.96079L11.1742 1.41158L11.8813 2.11868L11.8883 2.12568M11.1742 1.41158L11.8813 2.11868ZM20.0926 3.86818C20.4831 3.47765 21.1163 3.47765 21.5068 3.86818C25.9978 8.35921 25.9978 15.6406 21.5068 20.1316C21.1163 20.5222 20.4831 20.5222 20.0926 20.1316C19.7021 19.7411 19.7021 19.1079 20.0926 18.7174C23.8026 15.0074 23.8026 8.99237 20.0926 5.28239C19.7021 4.89187 19.7021 4.2587 20.0926 3.86818ZM16.9993 6.96187C17.3898 6.57134 18.023 6.57134 18.4135 6.96187C21.196 9.74435 21.196 14.2557 18.4135 17.0381C18.023 17.4287 17.3898 17.4287 16.9993 17.0381C16.6088 16.6476 16.6088 16.0144 16.9993 15.6239C19.0008 13.6225 19.0008 10.3775 16.9993 8.37608C16.6088 7.98555 16.6088 7.35239 16.9993 6.96187Z" fill="white"/>
</svg>
