<svg width="34" height="26" viewBox="0 0 34 26" fill="none" xmlns="http://www.w3.org/2000/svg">
<g clip-path="url(#clip0_184_908)">
<g filter="url(#filter0_b_184_908)">
<mask id="path-1-inside-1_184_908" fill="white">
<path fill-rule="evenodd" clip-rule="evenodd" d="M15.9783 5.59417C16.2698 5.593 16.561 5.59184 16.8511 5.59184C17.1512 5.59184 17.4525 5.593 17.7545 5.59416C18.361 5.5965 18.9706 5.59884 19.5802 5.59184C20.5249 5.57086 21.0602 5.0358 21.0707 4.0811C21.0812 3.2418 21.0812 2.4025 21.0707 1.5632C21.0707 0.566528 20.5144 0 19.5172 0H14.2164C13.2297 0.0104913 12.6839 0.566528 12.6734 1.57369V4.03913C12.6734 5.0463 13.2087 5.58135 14.2269 5.59184C14.8081 5.59884 15.394 5.5965 15.9783 5.59417ZM27.7782 8.40349H16.8616H5.99748C4.0031 8.40349 2.90095 9.50507 2.87995 11.5194C2.86946 12.4007 2.67002 12.6 1.79879 12.6C1.75641 12.6 1.71521 12.5988 1.67441 12.5976C1.59394 12.5953 1.51498 12.593 1.43141 12.6C0.654649 12.6525 0.0878261 13.198 0.0773294 13.9848C0.0668327 15.8523 0.0668327 17.7302 0.0878261 19.5977C0.0878261 20.4055 0.665146 20.951 1.48389 20.993H2.00873C2.61754 21.014 2.85896 21.2448 2.89045 21.8533V22.3254C2.92194 24.025 4.08708 25.179 5.78754 25.1895C7.15212 25.2 8.51669 25.2 9.88126 25.1895C11.1094 25.1895 12.222 24.8223 13.2087 24.0984C13.5604 23.8361 13.9094 23.5739 14.2584 23.3116C14.6074 23.0493 14.9564 22.787 15.3081 22.5247C16.4102 21.7064 17.3759 21.7064 18.4781 22.5352C18.792 22.7659 19.1039 23.0007 19.4165 23.236C19.8146 23.5356 20.2137 23.836 20.6194 24.1299C21.3437 24.6649 22.1519 25.0636 23.0651 25.1056C24.4338 25.1698 25.8104 25.1779 27.1881 25.1859C27.3847 25.187 27.5815 25.1882 27.7782 25.1895C29.7096 25.2 30.8537 24.0669 30.8642 22.147C30.8747 21.1609 31.0427 20.993 32.0293 20.993C33.1315 20.993 33.6773 20.4579 33.6773 19.3669V14.2261C33.6773 13.135 33.1315 12.6 32.0293 12.6C31.0427 12.5895 30.8747 12.4321 30.8642 11.446C30.8432 9.52606 29.7096 8.40349 27.7782 8.40349Z"/>
</mask>
<path fill-rule="evenodd" clip-rule="evenodd" d="M15.9783 5.59417C16.2698 5.593 16.561 5.59184 16.8511 5.59184C17.1512 5.59184 17.4525 5.593 17.7545 5.59416C18.361 5.5965 18.9706 5.59884 19.5802 5.59184C20.5249 5.57086 21.0602 5.0358 21.0707 4.0811C21.0812 3.2418 21.0812 2.4025 21.0707 1.5632C21.0707 0.566528 20.5144 0 19.5172 0H14.2164C13.2297 0.0104913 12.6839 0.566528 12.6734 1.57369V4.03913C12.6734 5.0463 13.2087 5.58135 14.2269 5.59184C14.8081 5.59884 15.394 5.5965 15.9783 5.59417ZM27.7782 8.40349H16.8616H5.99748C4.0031 8.40349 2.90095 9.50507 2.87995 11.5194C2.86946 12.4007 2.67002 12.6 1.79879 12.6C1.75641 12.6 1.71521 12.5988 1.67441 12.5976C1.59394 12.5953 1.51498 12.593 1.43141 12.6C0.654649 12.6525 0.0878261 13.198 0.0773294 13.9848C0.0668327 15.8523 0.0668327 17.7302 0.0878261 19.5977C0.0878261 20.4055 0.665146 20.951 1.48389 20.993H2.00873C2.61754 21.014 2.85896 21.2448 2.89045 21.8533V22.3254C2.92194 24.025 4.08708 25.179 5.78754 25.1895C7.15212 25.2 8.51669 25.2 9.88126 25.1895C11.1094 25.1895 12.222 24.8223 13.2087 24.0984C13.5604 23.8361 13.9094 23.5739 14.2584 23.3116C14.6074 23.0493 14.9564 22.787 15.3081 22.5247C16.4102 21.7064 17.3759 21.7064 18.4781 22.5352C18.792 22.7659 19.1039 23.0007 19.4165 23.236C19.8146 23.5356 20.2137 23.836 20.6194 24.1299C21.3437 24.6649 22.1519 25.0636 23.0651 25.1056C24.4338 25.1698 25.8104 25.1779 27.1881 25.1859C27.3847 25.187 27.5815 25.1882 27.7782 25.1895C29.7096 25.2 30.8537 24.0669 30.8642 22.147C30.8747 21.1609 31.0427 20.993 32.0293 20.993C33.1315 20.993 33.6773 20.4579 33.6773 19.3669V14.2261C33.6773 13.135 33.1315 12.6 32.0293 12.6C31.0427 12.5895 30.8747 12.4321 30.8642 11.446C30.8432 9.52606 29.7096 8.40349 27.7782 8.40349Z" fill="#E60000"/>
<path d="M15.9783 5.59417L15.9743 4.59417L15.9743 4.59417L15.9783 5.59417ZM17.7545 5.59416L17.7584 4.59417L17.7584 4.59417L17.7545 5.59416ZM19.5802 5.59184L19.5917 6.59183L19.6024 6.59159L19.5802 5.59184ZM21.0707 4.0811L20.0708 4.06859L20.0708 4.0701L21.0707 4.0811ZM21.0707 1.5632L20.0707 1.5632L20.0708 1.5757L21.0707 1.5632ZM14.2164 0L14.2164 -1.00006L14.2057 -0.999943L14.2164 0ZM12.6734 1.57369L11.6734 1.56327V1.57369H12.6734ZM14.2269 5.59184L14.2389 4.59191L14.2372 4.59189L14.2269 5.59184ZM2.87995 11.5194L3.87988 11.5313L3.8799 11.5298L2.87995 11.5194ZM1.67441 12.5976L1.70324 11.598L1.70322 11.598L1.67441 12.5976ZM1.43141 12.6L1.49878 13.5977L1.5066 13.5972L1.51441 13.5965L1.43141 12.6ZM0.0773294 13.9848L-0.922611 13.9715L-0.922655 13.9792L0.0773294 13.9848ZM0.0878261 19.5977L1.08789 19.5977L1.08776 19.5864L0.0878261 19.5977ZM1.48389 20.993L1.4327 21.9917L1.45828 21.993H1.48389V20.993ZM2.00873 20.993L2.04317 19.9936L2.02595 19.993H2.00873V20.993ZM2.89045 21.8533H3.89045V21.8274L3.88911 21.8016L2.89045 21.8533ZM2.89045 22.3254H1.89045V22.3347L1.89062 22.3439L2.89045 22.3254ZM5.78754 25.1895L5.79523 24.1895L5.79371 24.1895L5.78754 25.1895ZM9.88126 25.1895L9.88126 24.1895L9.87358 24.1895L9.88126 25.1895ZM13.2087 24.0984L13.8003 24.9047L13.8066 24.9L13.2087 24.0984ZM14.2584 23.3116L13.6576 22.5121L13.6576 22.5121L14.2584 23.3116ZM15.3081 22.5247L14.7119 21.7218L14.7102 21.7231L15.3081 22.5247ZM18.4781 22.5352L17.877 23.3345L17.8859 23.341L18.4781 22.5352ZM19.4165 23.236L18.8151 24.035L18.8151 24.035L19.4165 23.236ZM20.6194 24.1299L21.2136 23.3255L21.206 23.32L20.6194 24.1299ZM23.0651 25.1056L23.112 24.1067L23.1111 24.1066L23.0651 25.1056ZM27.1881 25.1859L27.1822 26.1859L27.1822 26.1859L27.1881 25.1859ZM27.7782 25.1895L27.7715 26.1895L27.7727 26.1895L27.7782 25.1895ZM30.8642 22.147L29.8643 22.1364L29.8642 22.1416L30.8642 22.147ZM32.0293 12.6L32.0187 13.6H32.0293V12.6ZM30.8642 11.446L31.8642 11.4353L31.8641 11.435L30.8642 11.446ZM16.8511 4.59184C16.5587 4.59184 16.2655 4.59301 15.9743 4.59417L15.9823 6.59416C16.2742 6.59299 16.5634 6.59184 16.8511 6.59184V4.59184ZM17.7584 4.59417C17.4567 4.59301 17.1534 4.59184 16.8511 4.59184V6.59184C17.1489 6.59184 17.4483 6.59299 17.7507 6.59416L17.7584 4.59417ZM19.5687 4.59191C18.9681 4.59881 18.3661 4.59651 17.7584 4.59417L17.7507 6.59416C18.3559 6.59648 18.9732 6.59888 19.5917 6.59177L19.5687 4.59191ZM20.0708 4.0701C20.0676 4.36505 19.9877 4.46026 19.9652 4.48298C19.9425 4.50598 19.8486 4.58563 19.558 4.59209L19.6024 6.59159C20.2565 6.57707 20.9027 6.3787 21.3864 5.89025C21.8703 5.40152 22.0634 4.75186 22.0707 4.09209L20.0708 4.0701ZM20.0708 1.5757C20.0812 2.40667 20.0812 3.23763 20.0708 4.06859L22.0707 4.09361C22.0813 3.24597 22.0813 2.39833 22.0707 1.55069L20.0708 1.5757ZM19.5172 1C19.829 1 19.9312 1.08512 19.9575 1.11163C19.9852 1.1396 20.0707 1.24674 20.0707 1.5632H22.0707C22.0707 0.882981 21.8781 0.208531 21.3783 -0.295935C20.8772 -0.801852 20.2027 -1 19.5172 -1V1ZM14.2164 1H19.5172V-1H14.2164V1ZM13.6733 1.58411C13.6768 1.25353 13.7644 1.14215 13.7927 1.11332C13.8182 1.08736 13.9171 1.00324 14.227 0.999943L14.2057 -0.999943C13.529 -0.992748 12.8616 -0.793602 12.3649 -0.287129C11.8709 0.216466 11.6805 0.886688 11.6734 1.56327L13.6733 1.58411ZM13.6734 4.03913V1.57369H11.6734V4.03913H13.6734ZM14.2372 4.59189C13.8929 4.58835 13.7926 4.49934 13.7752 4.48195C13.7596 4.46633 13.6734 4.37223 13.6734 4.03913H11.6734C11.6734 4.7132 11.8548 5.3902 12.3614 5.89653C12.8662 6.40107 13.5427 6.58484 14.2166 6.59179L14.2372 4.59189ZM15.9743 4.59417C15.3886 4.59651 14.8108 4.5988 14.2389 4.59191L14.2148 6.59177C14.8054 6.59888 15.3993 6.59649 15.9823 6.59416L15.9743 4.59417ZM16.8616 9.40349H27.7782V7.40349H16.8616V9.40349ZM5.99748 9.40349H16.8616V7.40349H5.99748V9.40349ZM3.8799 11.5298C3.88857 10.6975 4.11672 10.2021 4.40562 9.91336C4.69302 9.62612 5.18052 9.40349 5.99748 9.40349V7.40349C4.82006 7.40349 3.7593 7.73166 2.99177 8.49878C2.22576 9.2644 1.89233 10.3269 1.88001 11.509L3.8799 11.5298ZM1.79879 13.6C2.21136 13.6 2.88616 13.5801 3.36907 13.0975C3.84788 12.6189 3.87494 11.9463 3.87988 11.5313L1.88002 11.5075C1.87892 11.6003 1.87542 11.6723 1.87032 11.7283C1.86518 11.7849 1.85922 11.8161 1.85604 11.8295C1.85297 11.8425 1.85489 11.8285 1.86958 11.7993C1.8855 11.7676 1.91287 11.7252 1.95522 11.6829C1.99767 11.6405 2.04081 11.6125 2.07422 11.5958C2.10513 11.5804 2.12097 11.5779 2.11004 11.5804C2.09859 11.5831 2.06927 11.5885 2.0145 11.5929C1.96016 11.5973 1.88994 11.6 1.79879 11.6V13.6ZM1.64558 13.5972C1.68432 13.5983 1.7397 13.6 1.79879 13.6V11.6C1.77312 11.6 1.74611 11.5993 1.70324 11.598L1.64558 13.5972ZM1.51441 13.5965C1.53362 13.5949 1.55797 13.5947 1.6456 13.5972L1.70322 11.598C1.62991 11.5959 1.49634 11.5911 1.34841 11.6034L1.51441 13.5965ZM1.07724 13.9982C1.07919 13.852 1.12762 13.7709 1.17587 13.7224C1.22828 13.6697 1.32829 13.6092 1.49878 13.5977L1.36403 11.6023C0.112526 11.6868 -0.904549 12.6197 -0.922582 13.9715L1.07724 13.9982ZM1.08776 19.5864C1.06685 17.7263 1.06684 15.8543 1.07731 13.9905L-0.922655 13.9792C-0.933172 15.8502 -0.933187 17.7341 -0.912111 19.6089L1.08776 19.5864ZM1.53508 19.9943C1.33526 19.9841 1.22896 19.9177 1.18004 19.8696C1.13711 19.8274 1.08783 19.7517 1.08783 19.5977H-0.912174C-0.912174 20.2515 -0.672796 20.8525 -0.222382 21.2955C0.222044 21.7326 0.813776 21.96 1.4327 21.9917L1.53508 19.9943ZM2.00873 19.993H1.48389V21.993H2.00873V19.993ZM3.88911 21.8016C3.86847 21.4027 3.7722 20.8832 3.36288 20.4856C2.9562 20.0905 2.43673 20.0072 2.04317 19.9936L1.97428 21.9924C2.02065 21.994 2.05343 21.9973 2.07523 22.0005C2.09701 22.0037 2.10387 22.0062 2.09971 22.0049C2.09509 22.0034 2.07775 21.9975 2.05291 21.9834C2.02731 21.9689 1.99806 21.948 1.96929 21.9201C1.94049 21.8921 1.91842 21.8631 1.9026 21.8369C1.88721 21.8115 1.88032 21.7931 1.87827 21.7871C1.87639 21.7816 1.87878 21.787 1.8822 21.8075C1.88562 21.8279 1.88944 21.8595 1.89179 21.905L3.88911 21.8016ZM3.89045 22.3254V21.8533H1.89045V22.3254H3.89045ZM5.79371 24.1895C5.17399 24.1857 4.71773 23.978 4.41637 23.6799C4.11486 23.3817 3.90177 22.927 3.89028 22.3069L1.89062 22.3439C1.91062 23.4234 2.29585 24.3955 3.00989 25.1018C3.72409 25.8083 4.70063 26.1828 5.78137 26.1895L5.79371 24.1895ZM9.87358 24.1895C8.51413 24.2 7.15468 24.2 5.79523 24.1895L5.77986 26.1895C7.14956 26.2 8.51925 26.2 9.88895 26.1895L9.87358 24.1895ZM12.6172 23.2921C11.8011 23.8909 10.8954 24.1895 9.88126 24.1895V26.1895C11.3233 26.1895 12.643 25.7537 13.8003 24.9047L12.6172 23.2921ZM13.6576 22.5121C13.3084 22.7746 12.9608 23.0358 12.6108 23.2968L13.8066 24.9C14.1599 24.6365 14.5104 24.3731 14.8592 24.111L13.6576 22.5121ZM14.7102 21.7231C14.3569 21.9867 14.0064 22.25 13.6576 22.5121L14.8592 24.111C15.2084 23.8485 15.556 23.5873 15.906 23.3263L14.7102 21.7231ZM19.0791 21.736C18.419 21.2396 17.6964 20.9143 16.8956 20.9123C16.095 20.9103 15.372 21.2317 14.7119 21.7218L15.9042 23.3276C16.3463 22.9994 16.6572 22.9117 16.8905 22.9123C17.1237 22.9129 17.435 23.002 17.8771 23.3345L19.0791 21.736ZM20.0179 22.437C19.7061 22.2023 19.3896 21.9641 19.0703 21.7294L17.8859 23.341C18.1944 23.5678 18.5018 23.7991 18.8151 24.035L20.0179 22.437ZM21.206 23.32C20.809 23.0324 20.4172 22.7376 20.0179 22.437L18.8151 24.035C19.212 24.3337 19.6184 24.6396 20.0328 24.9398L21.206 23.32ZM23.1111 24.1066C22.4695 24.0771 21.8503 23.796 21.2136 23.3256L20.0252 24.9342C20.837 25.5339 21.8344 26.0501 23.0192 26.1045L23.1111 24.1066ZM27.1939 24.1859C25.8127 24.1779 24.4567 24.1698 23.112 24.1067L23.0182 26.1045C24.4108 26.1699 25.8081 26.1779 27.1822 26.1859L27.1939 24.1859ZM27.7848 24.1895C27.5876 24.1882 27.3905 24.1871 27.1939 24.1859L27.1822 26.1859C27.379 26.187 27.5753 26.1882 27.7715 26.1895L27.7848 24.1895ZM29.8642 22.1416C29.8601 22.9041 29.6353 23.3881 29.339 23.6805C29.0426 23.9731 28.5532 24.1937 27.7836 24.1895L27.7727 26.1895C28.9346 26.1958 29.9829 25.8551 30.744 25.1039C31.5053 24.3524 31.8579 23.3099 31.8642 22.1525L29.8642 22.1416ZM32.0293 19.993C31.7691 19.993 31.4915 20.0027 31.2351 20.0543C30.9677 20.1082 30.6466 20.2223 30.3766 20.4901C30.1067 20.7578 29.9898 21.0776 29.9336 21.3439C29.8795 21.5994 29.867 21.8765 29.8643 22.1364L31.8642 22.1577C31.8653 22.0469 31.8686 21.9598 31.8739 21.8901C31.8793 21.8198 31.8859 21.7786 31.8903 21.7575C31.8993 21.7149 31.8881 21.8079 31.7848 21.9103C31.6814 22.0128 31.588 22.0234 31.6299 22.015C31.6509 22.0107 31.6918 22.0046 31.7621 22C31.8316 21.9954 31.9186 21.993 32.0293 21.993V19.993ZM32.6773 19.3669C32.6773 19.7581 32.5803 19.8615 32.5649 19.8767C32.5466 19.8947 32.4336 19.993 32.0293 19.993V21.993C32.7272 21.993 33.4382 21.8238 33.9684 21.3015C34.5015 20.7764 34.6773 20.0667 34.6773 19.3669H32.6773ZM32.6773 14.2261V19.3669H34.6773V14.2261H32.6773ZM32.0293 13.6C32.4336 13.6 32.5466 13.6983 32.5649 13.7163C32.5803 13.7315 32.6773 13.8349 32.6773 14.2261H34.6773C34.6773 13.5263 34.5015 12.8166 33.9684 12.2915C33.4382 11.7692 32.7272 11.6 32.0293 11.6V13.6ZM29.8643 11.4566C29.867 11.7163 29.8795 11.9933 29.9338 12.2487C29.9905 12.5157 30.1083 12.8351 30.3794 13.1017C30.6492 13.3671 30.9687 13.4798 31.2321 13.5336C31.4853 13.5854 31.7606 13.5972 32.0187 13.5999L32.04 11.6001C31.9282 11.5989 31.8401 11.5957 31.7693 11.5905C31.6977 11.5853 31.6554 11.5788 31.6329 11.5742C31.587 11.5648 31.6789 11.5745 31.782 11.676C31.8864 11.7787 31.8986 11.8732 31.8901 11.833C31.8858 11.8127 31.8793 11.7722 31.8739 11.7022C31.8686 11.6329 31.8653 11.5461 31.8642 11.4353L29.8643 11.4566ZM27.7782 9.40349C28.551 9.40349 29.0393 9.62453 29.3351 9.91646C29.6306 10.2082 29.8559 10.6911 29.8643 11.4569L31.8641 11.435C31.8515 10.2809 31.4995 9.24263 30.7401 8.49306C29.9809 7.74373 28.9368 7.40349 27.7782 7.40349V9.40349Z" fill="#E60000" mask="url(#path-1-inside-1_184_908)"/>
</g>
</g>
<defs>
<filter id="filter0_b_184_908" x="-11.9296" y="-12" width="57.6069" height="49.1974" filterUnits="userSpaceOnUse" color-interpolation-filters="sRGB">
<feFlood flood-opacity="0" result="BackgroundImageFix"/>
<feGaussianBlur in="BackgroundImageFix" stdDeviation="6"/>
<feComposite in2="SourceAlpha" operator="in" result="effect1_backgroundBlur_184_908"/>
<feBlend mode="normal" in="SourceGraphic" in2="effect1_backgroundBlur_184_908" result="shape"/>
</filter>
<clipPath id="clip0_184_908">
<rect width="33.6" height="25.2" fill="white" transform="translate(0.0667725)"/>
</clipPath>
</defs>
</svg>
