<svg width="36" height="27" viewBox="0 0 36 27" fill="none" xmlns="http://www.w3.org/2000/svg">
<g clip-path="url(#clip0_184_892)">
<g filter="url(#filter0_b_184_892)">
<mask id="path-1-inside-1_184_892" fill="white">
<path fill-rule="evenodd" clip-rule="evenodd" d="M0.466952 17.3457V17.8257C12.0412 17.8257 23.5373 17.8257 35.0781 17.8146V17.3345V2.31836C35.0781 1.26891 34.6093 0.800003 33.5379 0.800003H2.00721C0.924564 0.800003 0.466952 1.26891 0.466952 2.32953V17.3457ZM16.7238 12.2975C16.2572 12.5674 15.7874 12.8392 15.3115 13.1144V6.54968C16.5194 7.25333 17.7093 7.93889 18.9127 8.63227C19.5996 9.02803 20.2909 9.42634 20.9926 9.83201C19.546 10.6649 18.1501 11.4724 16.7238 12.2975ZM29.6773 23.8188C29.5669 23.5482 29.454 23.2712 29.3411 22.9837H29.3419C30.8484 22.9837 32.2656 22.9837 33.6605 22.9725C34.4195 22.9614 34.9999 22.5371 35.0334 21.8561C35.0719 21.2079 35.0625 20.5543 35.053 19.8954C35.0488 19.6011 35.0445 19.3057 35.0445 19.0092H0.455688V21.376C0.455688 22.5036 0.924463 22.9725 2.04059 22.9725H6.18143C5.83552 23.8431 5.51193 24.6468 5.18834 25.4504L5.18808 25.451C5.05414 25.8083 4.99833 26.1655 5.44478 26.333C5.88007 26.5005 6.09214 26.2102 6.23724 25.8529C6.33531 25.6109 6.43531 25.3699 6.53525 25.129C6.77652 24.5474 7.01751 23.9665 7.23059 23.3744C7.35336 23.0507 7.52078 22.9725 7.84446 22.9725C14.4631 22.9837 21.0818 22.9837 27.7004 22.9725C28.0464 22.9725 28.1915 23.0842 28.3031 23.3968C28.5563 24.0689 28.8265 24.7241 29.0989 25.3845C29.1387 25.481 29.1785 25.5775 29.2183 25.6743C29.2462 25.7357 29.2713 25.7943 29.2965 25.8529C29.3216 25.9116 29.3467 25.9702 29.3746 26.0316C29.5197 26.3553 29.821 26.5116 30.0889 26.3218C30.2675 26.199 30.4237 25.8083 30.3568 25.6073C30.1633 25.0112 29.9269 24.4312 29.6773 23.8188ZM21.9858 21.2085H17.7445C17.2762 21.2085 16.8066 21.2073 16.3366 21.2061C15.3953 21.2036 14.4524 21.2011 13.5144 21.2085C13.1349 21.2085 12.7666 21.1639 12.7554 20.6838C12.7443 20.1926 13.1126 20.0921 13.5256 20.0921H21.997C22.3988 20.0921 22.7783 20.1814 22.7783 20.6727C22.7783 21.1862 22.3765 21.2085 21.9858 21.2085Z"/>
</mask>
<path fill-rule="evenodd" clip-rule="evenodd" d="M0.466952 17.3457V17.8257C12.0412 17.8257 23.5373 17.8257 35.0781 17.8146V17.3345V2.31836C35.0781 1.26891 34.6093 0.800003 33.5379 0.800003H2.00721C0.924564 0.800003 0.466952 1.26891 0.466952 2.32953V17.3457ZM16.7238 12.2975C16.2572 12.5674 15.7874 12.8392 15.3115 13.1144V6.54968C16.5194 7.25333 17.7093 7.93889 18.9127 8.63227C19.5996 9.02803 20.2909 9.42634 20.9926 9.83201C19.546 10.6649 18.1501 11.4724 16.7238 12.2975ZM29.6773 23.8188C29.5669 23.5482 29.454 23.2712 29.3411 22.9837H29.3419C30.8484 22.9837 32.2656 22.9837 33.6605 22.9725C34.4195 22.9614 34.9999 22.5371 35.0334 21.8561C35.0719 21.2079 35.0625 20.5543 35.053 19.8954C35.0488 19.6011 35.0445 19.3057 35.0445 19.0092H0.455688V21.376C0.455688 22.5036 0.924463 22.9725 2.04059 22.9725H6.18143C5.83552 23.8431 5.51193 24.6468 5.18834 25.4504L5.18808 25.451C5.05414 25.8083 4.99833 26.1655 5.44478 26.333C5.88007 26.5005 6.09214 26.2102 6.23724 25.8529C6.33531 25.6109 6.43531 25.3699 6.53525 25.129C6.77652 24.5474 7.01751 23.9665 7.23059 23.3744C7.35336 23.0507 7.52078 22.9725 7.84446 22.9725C14.4631 22.9837 21.0818 22.9837 27.7004 22.9725C28.0464 22.9725 28.1915 23.0842 28.3031 23.3968C28.5563 24.0689 28.8265 24.7241 29.0989 25.3845C29.1387 25.481 29.1785 25.5775 29.2183 25.6743C29.2462 25.7357 29.2713 25.7943 29.2965 25.8529C29.3216 25.9116 29.3467 25.9702 29.3746 26.0316C29.5197 26.3553 29.821 26.5116 30.0889 26.3218C30.2675 26.199 30.4237 25.8083 30.3568 25.6073C30.1633 25.0112 29.9269 24.4312 29.6773 23.8188ZM21.9858 21.2085H17.7445C17.2762 21.2085 16.8066 21.2073 16.3366 21.2061C15.3953 21.2036 14.4524 21.2011 13.5144 21.2085C13.1349 21.2085 12.7666 21.1639 12.7554 20.6838C12.7443 20.1926 13.1126 20.0921 13.5256 20.0921H21.997C22.3988 20.0921 22.7783 20.1814 22.7783 20.6727C22.7783 21.1862 22.3765 21.2085 21.9858 21.2085Z" fill="#E60000"/>
<path d="M0.466952 17.8257H-0.533049V18.8257H0.466952V17.8257ZM35.0781 17.8146L35.0791 18.8146L36.0781 18.8136V17.8146H35.0781ZM15.3115 13.1144H14.3115V14.8477L15.812 13.9801L15.3115 13.1144ZM16.7238 12.2975L16.2231 11.4319L16.7238 12.2975ZM15.3115 6.54968L15.8148 5.68559L14.3115 4.80987V6.54968H15.3115ZM18.9127 8.63227L19.412 7.7658V7.7658L18.9127 8.63227ZM20.9926 9.83201L21.4915 10.6986L22.9936 9.83386L21.4931 8.96631L20.9926 9.83201ZM29.3411 22.9837V21.9837H27.874L28.4103 23.3493L29.3411 22.9837ZM29.6773 23.8188L30.6033 23.4414L30.6033 23.4414L29.6773 23.8188ZM33.6605 22.9725L33.6685 23.9725L33.6752 23.9724L33.6605 22.9725ZM35.0334 21.8561L34.0351 21.7967L34.0346 21.807L35.0334 21.8561ZM35.053 19.8954L36.0529 19.881V19.881L35.053 19.8954ZM35.0445 19.0092H36.0445V18.0092H35.0445V19.0092ZM0.455688 19.0092V18.0092H-0.544312V19.0092H0.455688ZM6.18143 22.9725L7.11076 23.3418L7.6548 21.9725H6.18143V22.9725ZM5.18834 25.4504L4.26071 25.0769L4.26071 25.0769L5.18834 25.4504ZM5.18808 25.451L4.26045 25.0775L4.25595 25.0887L4.25171 25.1L5.18808 25.451ZM5.44478 26.333L5.80386 25.3997L5.796 25.3967L5.44478 26.333ZM6.23724 25.8529L7.16374 26.2292L7.16401 26.2286L6.23724 25.8529ZM6.53525 25.129L7.45893 25.5122L7.45893 25.5122L6.53525 25.129ZM7.23059 23.3744L6.29556 23.0199L6.29255 23.0278L6.28967 23.0358L7.23059 23.3744ZM7.84446 22.9725L7.84615 21.9725H7.84446V22.9725ZM27.7004 22.9725V21.9725L27.6987 21.9725L27.7004 22.9725ZM28.3031 23.3968L27.3613 23.733L27.3642 23.7412L27.3673 23.7493L28.3031 23.3968ZM29.0989 25.3845L30.0233 25.0032L30.0233 25.0032L29.0989 25.3845ZM29.2183 25.6743L28.2936 26.055L28.3005 26.0716L28.3079 26.088L29.2183 25.6743ZM29.3746 26.0316L30.2872 25.6226L30.285 25.6179L29.3746 26.0316ZM30.0889 26.3218L29.5222 25.4978L29.5108 25.5059L30.0889 26.3218ZM30.3568 25.6073L29.4056 25.9161L29.4081 25.9235L30.3568 25.6073ZM16.3366 21.2061L16.3392 20.2061H16.3392L16.3366 21.2061ZM13.5144 21.2085V22.2086L13.5223 22.2085L13.5144 21.2085ZM12.7554 20.6838L11.7557 20.7065L11.7557 20.7071L12.7554 20.6838ZM1.46695 17.8257V17.3457H-0.533049V17.8257H1.46695ZM35.0771 16.8146C23.5369 16.8257 12.0413 16.8257 0.466952 16.8257V18.8257C12.0411 18.8257 23.5377 18.8257 35.0791 18.8146L35.0771 16.8146ZM34.0781 17.3345V17.8146H36.0781V17.3345H34.0781ZM34.0781 2.31836V17.3345H36.0781V2.31836H34.0781ZM33.5379 1.8C33.9527 1.8 34.0241 1.89391 34.0065 1.87659C33.9866 1.85681 34.0781 1.91936 34.0781 2.31836H36.0781C36.0781 1.66791 35.9353 0.971277 35.413 0.454689C34.8933 -0.0594525 34.1945 -0.199997 33.5379 -0.199997V1.8ZM2.00721 1.8H33.5379V-0.199997H2.00721V1.8ZM1.46695 2.32953C1.46695 1.91664 1.55955 1.85278 1.53829 1.87404C1.51716 1.89518 1.58384 1.8 2.00721 1.8V-0.199997C1.34793 -0.199997 0.644483 -0.0607209 0.123883 0.460025C-0.396836 0.98089 -0.533049 1.6818 -0.533049 2.32953H1.46695ZM1.46695 17.3457V2.32953H-0.533049V17.3457H1.46695ZM15.812 13.9801C16.2881 13.7048 16.758 13.433 17.2245 13.1631L16.2231 11.4319C15.7565 11.7018 15.2867 11.9735 14.8109 12.2486L15.812 13.9801ZM14.3115 6.54968V13.1144H16.3115V6.54968H14.3115ZM19.412 7.7658C18.2082 7.07223 17.0204 6.38785 15.8148 5.68559L14.8081 7.41376C16.0185 8.11881 17.2104 8.80554 18.4135 9.49874L19.412 7.7658ZM21.4931 8.96631C20.7907 8.56018 20.0988 8.1615 19.412 7.7658L18.4135 9.49874C19.1005 9.89456 19.7912 10.2925 20.492 10.6977L21.4931 8.96631ZM17.2245 13.1631C18.651 12.3379 20.046 11.5309 21.4915 10.6986L20.4936 8.96539C19.046 9.79883 17.6493 10.6068 16.2231 11.4319L17.2245 13.1631ZM28.4103 23.3493C28.5259 23.6436 28.6412 23.9264 28.7512 24.1963L30.6033 23.4414C30.4926 23.1699 30.3821 22.8987 30.2719 22.6181L28.4103 23.3493ZM29.3419 21.9837H29.3411V23.9837H29.3419V21.9837ZM33.6525 21.9726C32.2623 21.9837 30.8491 21.9837 29.3419 21.9837V23.9837C30.8476 23.9837 32.2689 23.9837 33.6685 23.9725L33.6525 21.9726ZM34.0346 21.807C34.033 21.838 34.0267 21.8502 34.0253 21.8528C34.0236 21.8562 34.018 21.8659 33.9997 21.8804C33.9599 21.9118 33.85 21.9696 33.6458 21.9726L33.6752 23.9724C34.7688 23.9563 35.9643 23.2862 36.0322 21.9052L34.0346 21.807ZM34.0531 19.9098C34.0627 20.5752 34.0711 21.1916 34.0351 21.7967L36.0316 21.9155C36.0727 21.2242 36.0623 20.5335 36.0529 19.881L34.0531 19.9098ZM34.0445 19.0092C34.0445 19.314 34.0489 19.6167 34.0531 19.9099L36.0529 19.881C36.0487 19.5855 36.0445 19.2973 36.0445 19.0092H34.0445ZM0.455688 20.0092H35.0445V18.0092H0.455688V20.0092ZM1.45569 21.376V19.0092H-0.544312V21.376H1.45569ZM2.04059 21.9725C1.82628 21.9725 1.69286 21.9494 1.61514 21.9255C1.57827 21.9142 1.55781 21.904 1.54842 21.8985C1.54367 21.8958 1.54107 21.8939 1.54 21.8931C1.53942 21.8927 1.53909 21.8924 1.53895 21.8923C1.5388 21.8921 1.53874 21.8921 1.53871 21.892C1.53869 21.892 1.5386 21.8919 1.53843 21.8917C1.53826 21.8915 1.53793 21.8911 1.53742 21.8905C1.53646 21.8892 1.53439 21.8863 1.53145 21.8811C1.52562 21.8709 1.51498 21.8494 1.50338 21.8111C1.47898 21.7306 1.45569 21.5939 1.45569 21.376H-0.544312C-0.544312 22.048 -0.409426 22.7693 0.120473 23.3022C0.651752 23.8365 1.37198 23.9725 2.04059 23.9725V21.9725ZM6.18143 21.9725H2.04059V23.9725H6.18143V21.9725ZM6.11596 25.8239C6.43946 25.0205 6.76388 24.2148 7.11076 23.3418L5.2521 22.6033C4.90716 23.4714 4.5844 24.273 4.26071 25.0769L6.11596 25.8239ZM6.1157 25.8245L6.11596 25.8239L4.26071 25.0769L4.26045 25.0775L6.1157 25.8245ZM5.796 25.3967C5.79903 25.3979 5.86928 25.425 5.94614 25.5118C6.02878 25.6051 6.07136 25.7135 6.0859 25.8032C6.09837 25.8801 6.08731 25.9231 6.08987 25.9102C6.09217 25.8985 6.10053 25.8658 6.12444 25.8021L4.25171 25.1C4.17871 25.2947 4.0413 25.6891 4.11167 26.1232C4.15132 26.3678 4.25529 26.6192 4.44884 26.8378C4.63662 27.0498 4.86732 27.1844 5.09357 27.2693L5.796 25.3967ZM5.31073 25.4767C5.2871 25.5349 5.27188 25.5619 5.26702 25.5697C5.26163 25.5782 5.28251 25.5413 5.34129 25.4962C5.40884 25.4444 5.50648 25.3978 5.6216 25.385C5.72988 25.373 5.7973 25.3972 5.80385 25.3997L5.08572 27.2663C5.57977 27.4564 6.11773 27.4212 6.55837 27.0833C6.90707 26.8159 7.0784 26.4394 7.16374 26.2292L5.31073 25.4767ZM5.61158 24.7458C5.5119 24.9861 5.41033 25.2309 5.31046 25.4773L7.16401 26.2286C7.2603 25.991 7.35872 25.7537 7.45893 25.5122L5.61158 24.7458ZM6.28967 23.0358C6.08603 23.6017 5.85438 24.1605 5.61158 24.7458L7.45893 25.5122C7.69867 24.9343 7.94899 24.3314 8.17151 23.7131L6.28967 23.0358ZM7.84446 21.9725C7.62733 21.9725 7.27627 21.9926 6.93866 22.2001C6.57958 22.4207 6.39827 22.749 6.29556 23.0199L8.16562 23.729C8.18569 23.6761 8.14947 23.8035 7.98571 23.9041C7.84343 23.9915 7.73792 23.9725 7.84446 23.9725V21.9725ZM27.6987 21.9725C21.0812 21.9837 14.4637 21.9837 7.84615 21.9725L7.84277 23.9725C14.4625 23.9837 21.0823 23.9837 27.7021 23.9725L27.6987 21.9725ZM29.2449 23.0605C29.162 22.8283 29.0088 22.4959 28.6721 22.2546C28.3331 22.0116 27.9643 21.9725 27.7004 21.9725V23.9725C27.7825 23.9725 27.6593 23.9893 27.5072 23.8803C27.3574 23.773 27.3326 23.6526 27.3613 23.733L29.2449 23.0605ZM30.0233 25.0032C29.75 24.3406 29.4858 23.6996 29.2389 23.0442L27.3673 23.7493C27.6269 24.4383 27.903 25.1076 28.1744 25.7658L30.0233 25.0032ZM30.143 25.2937C30.1031 25.1965 30.0631 25.0996 30.0233 25.0032L28.1744 25.7658C28.2142 25.8623 28.2539 25.9586 28.2936 26.055L30.143 25.2937ZM30.2156 25.4591C30.1911 25.4018 30.1618 25.3334 30.1287 25.2606L28.3079 26.088C28.3306 26.138 28.3516 26.1869 28.3773 26.2468L30.2156 25.4591ZM30.285 25.6179C30.2623 25.5679 30.2413 25.519 30.2156 25.4591L28.3773 26.2468C28.4019 26.3041 28.4311 26.3725 28.4642 26.4453L30.285 25.6179ZM29.5108 25.5059C29.5719 25.4626 29.6648 25.4194 29.7829 25.4073C29.9003 25.3953 30.0062 25.4178 30.0882 25.4539C30.2416 25.5213 30.285 25.6179 30.2871 25.6226L28.462 26.4405C28.6093 26.769 28.8759 27.1056 29.2832 27.2847C29.7331 27.4825 30.2475 27.435 30.667 27.1378L29.5108 25.5059ZM29.4081 25.9235C29.3617 25.7844 29.3733 25.6849 29.3754 25.6673C29.3788 25.6391 29.3835 25.63 29.3813 25.6356C29.3794 25.6405 29.3795 25.6378 29.3881 25.6251C29.3917 25.6197 29.4306 25.5609 29.5223 25.4979L30.6555 27.1458C30.9838 26.9201 31.1627 26.5759 31.2486 26.3522C31.3287 26.1434 31.4497 25.7241 31.3055 25.2912L29.4081 25.9235ZM28.7512 24.1963C29.0033 24.8148 29.2254 25.3607 29.4056 25.9161L31.3079 25.2986C31.1012 24.6617 30.8504 24.0476 30.6033 23.4414L28.7512 24.1963ZM17.7445 22.2085H21.9858V20.2085H17.7445V22.2085ZM16.3339 22.2061C16.8037 22.2073 17.2746 22.2085 17.7445 22.2085V20.2085C17.2777 20.2085 16.8094 20.2073 16.3392 20.2061L16.3339 22.2061ZM13.5223 22.2085C14.4541 22.2011 15.3917 22.2036 16.3339 22.2061L16.3392 20.2061C15.3988 20.2036 14.4506 20.2011 13.5065 20.2086L13.5223 22.2085ZM11.7557 20.7071C11.7614 20.9533 11.815 21.2222 11.9627 21.4741C12.1146 21.7333 12.3277 21.9086 12.5459 22.0188C12.9245 22.21 13.3373 22.2085 13.5144 22.2085V20.2085C13.4336 20.2085 13.3913 20.2057 13.3688 20.2028C13.3448 20.1996 13.3829 20.2009 13.4476 20.2336C13.5249 20.2727 13.6202 20.3468 13.6881 20.4626C13.7516 20.571 13.755 20.6544 13.7552 20.6606L11.7557 20.7071ZM13.5256 19.0921C13.2808 19.0921 12.8502 19.1132 12.4619 19.3493C11.969 19.649 11.7433 20.1602 11.7557 20.7065L13.7552 20.6611C13.7552 20.6632 13.7562 20.7342 13.7067 20.8328C13.6538 20.9382 13.5739 21.0139 13.501 21.0582C13.438 21.0965 13.3976 21.1013 13.4113 21.0988C13.4237 21.0965 13.4588 21.0921 13.5256 21.0921V19.0921ZM21.997 19.0921H13.5256V21.0921H21.997V19.0921ZM23.7783 20.6727C23.7783 20.4211 23.7292 20.1523 23.5925 19.8993C23.4527 19.6408 23.2521 19.4556 23.0381 19.332C22.6523 19.1094 22.23 19.0921 21.997 19.0921V21.0921C22.0644 21.0921 22.1014 21.0962 22.1169 21.0989C22.1338 21.1018 22.0977 21.0985 22.0385 21.0643C21.9695 21.0245 21.8889 20.9538 21.8329 20.8501C21.7799 20.752 21.7783 20.6786 21.7783 20.6727H23.7783ZM21.9858 22.2085C22.1408 22.2085 22.5681 22.2185 22.952 22.0391C23.1791 21.933 23.4089 21.7558 23.571 21.4806C23.7279 21.2142 23.7783 20.9292 23.7783 20.6727H21.7783C21.7783 20.6724 21.7782 20.6505 21.787 20.6133C21.7961 20.5749 21.814 20.5228 21.8477 20.4655C21.9223 20.339 22.0273 20.2636 22.1051 20.2273C22.1683 20.1977 22.2015 20.1991 22.1658 20.2029C22.1318 20.2067 22.0808 20.2085 21.9858 20.2085V22.2085Z" fill="#E60000" mask="url(#path-1-inside-1_184_892)"/>
</g>
</g>
<defs>
<filter id="filter0_b_184_892" x="-11.5443" y="-11.2" width="58.6224" height="49.604" filterUnits="userSpaceOnUse" color-interpolation-filters="sRGB">
<feFlood flood-opacity="0" result="BackgroundImageFix"/>
<feGaussianBlur in="BackgroundImageFix" stdDeviation="6"/>
<feComposite in2="SourceAlpha" operator="in" result="effect1_backgroundBlur_184_892"/>
<feBlend mode="normal" in="SourceGraphic" in2="effect1_backgroundBlur_184_892" result="shape"/>
</filter>
<clipPath id="clip0_184_892">
<rect width="34.6" height="25.6" fill="white" transform="translate(0.466797 0.800003)"/>
</clipPath>
</defs>
</svg>
